<svg xmlns="http://www.w3.org/2000/svg" width="36.111" height="33.333" viewBox="0 0 36.111 33.333">
  <path id="Icon_ionic-md-heart-empty" data-name="Icon ionic-md-heart-empty" d="M29.931,5a10.681,10.681,0,0,0-8.125,3.811A10.681,10.681,0,0,0,13.681,5,9.817,9.817,0,0,0,3.75,14.991c0,6.9,6.137,12.439,15.434,20.981l2.622,2.361,2.622-2.361c9.3-8.542,15.434-14.08,15.434-20.981A9.817,9.817,0,0,0,29.931,5ZM22.917,33.585l-.365.339-.747.677-.747-.677-.365-.339a110.336,110.336,0,0,1-10.651-10.59c-2.431-3.012-3.507-5.477-3.507-8A7.22,7.22,0,0,1,8.594,9.844a7.064,7.064,0,0,1,5.087-2.066,7.961,7.961,0,0,1,6,2.821l2.127,2.526L23.932,10.6a7.932,7.932,0,0,1,6-2.821,7.1,7.1,0,0,1,5.1,2.066,7.235,7.235,0,0,1,2.057,5.148c0,2.517-1.085,4.991-3.507,8A110.559,110.559,0,0,1,22.917,33.585Z" transform="translate(-3.75 -5)" fill="#bda05e"/>
</svg>
